<svg xmlns="http://www.w3.org/2000/svg" width="28" height="40" fill="none">
	<path fill="#fff"
		d="M7.505 35.496c0 .491.146.973.418 1.382l1.336 2.007a2.5 2.5 0 0 0 2.08 1.116h4.822a2.5 2.5 0 0 0 2.081-1.116l1.335-2.007a2.5 2.5 0 0 0 .42-1.382l.002-2.996H7.501l.004 2.996ZM0 13.75c0 3.466 1.285 6.629 3.403 9.045 1.29 1.473 3.31 4.55 4.079 7.145l.009.06h12.518l.009-.06c.77-2.596 2.788-5.672 4.079-7.145A13.674 13.674 0 0 0 27.5 13.75C27.5 6.141 21.321-.023 13.707 0 5.737.024 0 6.482 0 13.75ZM13.75 7.5a6.257 6.257 0 0 0-6.25 6.25 1.25 1.25 0 1 1-2.5 0C5 8.925 8.925 5 13.75 5a1.25 1.25 0 1 1 0 2.5Z" />
</svg>