<svg width="18" height="19" viewBox="0 0 18 19" fill="none" xmlns="http://www.w3.org/2000/svg">
<path d="M15.875 18.25C16.8906 18.25 17.75 17.4297 17.75 16.375V2.625C17.75 1.60938 16.8906 0.75 15.875 0.75H2.125C1.07031 0.75 0.25 1.60938 0.25 2.625V16.375C0.25 17.4297 1.07031 18.25 2.125 18.25H15.875ZM7.86719 14.4219C7.63281 14.6953 7.20312 14.6953 6.96875 14.4219L2.90625 10.3594C2.67188 10.125 2.67188 9.73438 2.90625 9.5L3.80469 8.60156C4.03906 8.36719 4.42969 8.36719 4.66406 8.60156L7.4375 11.3359L13.2969 5.47656C13.5312 5.24219 13.9219 5.24219 14.1562 5.47656L15.0547 6.375C15.2891 6.60938 15.2891 7 15.0547 7.23438L7.86719 14.4219Z" fill="#ED1C25"/>
</svg>
