<svg width="19" height="21" viewBox="0 0 19 21" fill="none" xmlns="http://www.w3.org/2000/svg">
<path d="M13.25 18H6.6875C5.47656 18 4.5 17.0234 4.5 15.8125V4.25H1.6875C1.14062 4.25 0.75 4.67969 0.75 5.1875V19.5625C0.75 20.1094 1.14062 20.5 1.6875 20.5H12.3125C12.8203 20.5 13.25 20.1094 13.25 19.5625V18ZM13.25 4.5625V0.5H6.6875C6.14062 0.5 5.75 0.929688 5.75 1.4375V15.8125C5.75 16.3594 6.14062 16.75 6.6875 16.75H17.3125C17.8203 16.75 18.25 16.3594 18.25 15.8125V5.5H14.1875C13.6406 5.5 13.25 5.10938 13.25 4.5625ZM17.9375 3.35156L15.3984 0.8125C15.2031 0.617188 14.9688 0.5 14.7344 0.5H14.5V4.25H18.25V4.01562C18.25 3.78125 18.1328 3.54688 17.9375 3.35156Z" fill="white"/>
</svg>
