<svg width="13" height="15" viewBox="0 0 13 15" fill="none" xmlns="http://www.w3.org/2000/svg">
<path d="M12.1875 1.625H8.90625L8.63281 1.13281C8.52344 0.914062 8.30469 0.75 8.05859 0.75H4.91406C4.66797 0.75 4.44922 0.914062 4.33984 1.13281L4.09375 1.625H0.8125C0.566406 1.625 0.375 1.84375 0.375 2.0625V2.9375C0.375 3.18359 0.566406 3.375 0.8125 3.375H12.1875C12.4062 3.375 12.625 3.18359 12.625 2.9375V2.0625C12.625 1.84375 12.4062 1.625 12.1875 1.625ZM1.82422 13.5195C1.85156 14.2305 2.42578 14.75 3.13672 14.75H9.83594C10.5469 14.75 11.1211 14.2305 11.1484 13.5195L11.75 4.25H1.25L1.82422 13.5195Z" fill="white"/>
</svg>
