<svg xmlns="http://www.w3.org/2000/svg" width="14" height="15" fill="none">
	<path fill="#fff"
		d="M5.906.75c-.383 0-.656.3-.656.656V6H2.844c-.492 0-.739.602-.383.957l4.156 4.156a.546.546 0 0 0 .738 0l4.157-4.156c.355-.355.11-.957-.383-.957H8.75V1.406c0-.355-.3-.656-.656-.656H5.906ZM14 11.031c0-.355-.3-.656-.656-.656h-4.02l-1.34 1.34a1.372 1.372 0 0 1-1.996 0l-1.34-1.34H.656c-.383 0-.656.3-.656.656v3.063c0 .383.273.656.656.656h12.688a.648.648 0 0 0 .656-.656V11.03Zm-3.39 2.406c0 .301-.247.547-.547.547a.548.548 0 0 1-.547-.546c0-.301.246-.547.546-.547.301 0 .547.246.547.546Zm1.75 0c0 .301-.247.547-.547.547a.549.549 0 0 1-.547-.546c0-.301.246-.547.546-.547.301 0 .547.246.547.546Z" />
</svg>