<svg xmlns="http://www.w3.org/2000/svg" width="16" height="13" fill="none">
	<path fill="#fff"
		d="M13.523 1.527C11.938.187 9.503.38 8 1.937 6.469.38 4.035.188 2.45 1.528.397 3.25.7 6.067 2.175 7.57l4.785 4.895c.273.273.629.437 1.039.437a1.43 1.43 0 0 0 1.012-.437l4.812-4.895c1.45-1.504 1.75-4.32-.3-6.043Zm-.656 5.114-4.785 4.894c-.055.055-.11.055-.191 0L3.105 6.641c-1.011-1.012-1.203-2.926.192-4.102 1.066-.902 2.707-.766 3.746.273L8 3.797l.957-.985c1.012-1.039 2.652-1.175 3.719-.3 1.394 1.203 1.203 3.117.191 4.129Z" />
</svg>