<svg width="24" height="24" viewBox="0 0 24 24" fill="none" xmlns="http://www.w3.org/2000/svg">
<mask id="mask0_409_6483" style="mask-type:luminance" maskUnits="userSpaceOnUse" x="1" y="1" width="22" height="22">
<path d="M22.252 10H12.002V14.25H17.902C17.352 16.95 15.052 18.5 12.002 18.5C8.40195 18.5 5.50195 15.6 5.50195 12C5.50195 8.40002 8.40195 5.50002 12.002 5.50002C13.552 5.50002 14.952 6.05001 16.052 6.95002L19.252 3.75002C17.302 2.05002 14.802 1.00002 12.002 1.00002C5.90195 1.00002 1.00195 5.90002 1.00195 12C1.00195 18.1 5.90195 23 12.002 23C17.502 23 22.502 19 22.502 12C22.502 11.35 22.402 10.65 22.252 10Z" fill="white"/>
</mask>
<g mask="url(#mask0_409_6483)">
<path d="M0 18.5V5.49998L8.5 12L0 18.5Z" fill="#FBBC05"/>
</g>
<mask id="mask1_409_6483" style="mask-type:luminance" maskUnits="userSpaceOnUse" x="1" y="1" width="22" height="22">
<path d="M22.252 10H12.002V14.25H17.902C17.352 16.95 15.052 18.5 12.002 18.5C8.40195 18.5 5.50195 15.6 5.50195 12C5.50195 8.40002 8.40195 5.50002 12.002 5.50002C13.552 5.50002 14.952 6.05001 16.052 6.95002L19.252 3.75002C17.302 2.05002 14.802 1.00002 12.002 1.00002C5.90195 1.00002 1.00195 5.90002 1.00195 12C1.00195 18.1 5.90195 23 12.002 23C17.502 23 22.502 19 22.502 12C22.502 11.35 22.402 10.65 22.252 10Z" fill="white"/>
</mask>
<g mask="url(#mask1_409_6483)">
<path d="M0 5.50003L8.5 12L12 8.95003L24 7.00003V3.43323e-05H0V5.50003Z" fill="#EA4335"/>
</g>
<mask id="mask2_409_6483" style="mask-type:luminance" maskUnits="userSpaceOnUse" x="1" y="1" width="22" height="22">
<path d="M22.252 10H12.002V14.25H17.902C17.352 16.95 15.052 18.5 12.002 18.5C8.40195 18.5 5.50195 15.6 5.50195 12C5.50195 8.40002 8.40195 5.50002 12.002 5.50002C13.552 5.50002 14.952 6.05001 16.052 6.95002L19.252 3.75002C17.302 2.05002 14.802 1.00002 12.002 1.00002C5.90195 1.00002 1.00195 5.90002 1.00195 12C1.00195 18.1 5.90195 23 12.002 23C17.502 23 22.502 19 22.502 12C22.502 11.35 22.402 10.65 22.252 10Z" fill="white"/>
</mask>
<g mask="url(#mask2_409_6483)">
<path d="M0 18.5L15 7.00003L18.95 7.50003L24 3.43323e-05V24H0V18.5Z" fill="#34A853"/>
</g>
<mask id="mask3_409_6483" style="mask-type:luminance" maskUnits="userSpaceOnUse" x="1" y="1" width="22" height="22">
<path d="M22.252 10H12.002V14.25H17.902C17.352 16.95 15.052 18.5 12.002 18.5C8.40195 18.5 5.50195 15.6 5.50195 12C5.50195 8.40002 8.40195 5.50002 12.002 5.50002C13.552 5.50002 14.952 6.05001 16.052 6.95002L19.252 3.75002C17.302 2.05002 14.802 1.00002 12.002 1.00002C5.90195 1.00002 1.00195 5.90002 1.00195 12C1.00195 18.1 5.90195 23 12.002 23C17.502 23 22.502 19 22.502 12C22.502 11.35 22.402 10.65 22.252 10Z" fill="white"/>
</mask>
<g mask="url(#mask3_409_6483)">
<path d="M24 24L8.5 12L6.5 10.5L24 5.49998V24Z" fill="#4285F4"/>
</g>
</svg>
