<svg width="20" height="15" viewBox="0 0 20 15" fill="none" xmlns="http://www.w3.org/2000/svg">
<path d="M18.125 15C19.1406 15 20 14.1797 20 13.125V1.875C20 0.859375 19.1406 0 18.125 0H1.875C0.820312 0 0 0.859375 0 1.875V13.125C0 14.1797 0.820312 15 1.875 15H18.125ZM4.375 2.1875C5.54688 2.1875 6.5625 3.20312 6.5625 4.375C6.5625 5.58594 5.54688 6.5625 4.375 6.5625C3.16406 6.5625 2.1875 5.58594 2.1875 4.375C2.1875 3.20312 3.16406 2.1875 4.375 2.1875ZM2.5 12.5V10.625L5.27344 7.85156C5.46875 7.65625 5.74219 7.65625 5.9375 7.85156L8.125 10L13.3984 4.72656C13.5938 4.53125 13.8672 4.53125 14.0625 4.72656L17.5 8.125V12.5H2.5Z" fill="white"/>
</svg>
