<svg width="29" height="15" viewBox="0 0 29 15" fill="none" xmlns="http://www.w3.org/2000/svg">
<path d="M21.2832 0.1875C18.3184 0.1875 15.9824 2.07422 14.5 3.73633C12.9727 2.07422 10.6816 0.1875 7.67188 0.1875C3.49414 0.1875 0.125 3.42188 0.125 7.375C0.125 11.373 3.49414 14.5625 7.67188 14.5625C10.6816 14.5625 12.9727 12.7207 14.5 11.0586C15.9824 12.7207 18.3184 14.5625 21.2832 14.5625C25.4609 14.5625 28.875 11.373 28.875 7.375C28.875 3.42188 25.4609 0.1875 21.2832 0.1875ZM7.67188 10.25C5.875 10.25 4.4375 8.99219 4.4375 7.375C4.4375 5.80273 5.875 4.5 7.67188 4.5C9.42383 4.5 10.9961 6.16211 11.8945 7.375C10.9961 8.63281 9.42383 10.25 7.67188 10.25ZM21.2832 10.25C19.5312 10.25 17.959 8.63281 17.0605 7.375C17.959 6.16211 19.5762 4.5 21.2832 4.5C23.0801 4.5 24.5625 5.80273 24.5625 7.375C24.5625 8.99219 23.0801 10.25 21.2832 10.25Z" fill="#781CED"/>
</svg>
