<svg xmlns="http://www.w3.org/2000/svg" width="12" height="11" fill="none">
	<path fill="#fff"
		d="M1.875 8.125h-1.5A.385.385 0 0 0 0 8.5V10c0 .21.164.375.375.375h1.5A.385.385 0 0 0 2.25 10V8.5a.403.403 0 0 0-.375-.375Zm0-7.5h-1.5A.385.385 0 0 0 0 1v1.5c0 .21.164.375.375.375h1.5A.385.385 0 0 0 2.25 2.5V1a.403.403 0 0 0-.375-.375Zm0 3.75h-1.5A.385.385 0 0 0 0 4.75v1.5c0 .21.164.375.375.375h1.5a.385.385 0 0 0 .375-.375v-1.5a.403.403 0 0 0-.375-.375Zm9.75 4.125h-7.5a.385.385 0 0 0-.375.375v.75c0 .21.164.375.375.375h7.5A.385.385 0 0 0 12 9.625v-.75a.403.403 0 0 0-.375-.375Zm0-7.5h-7.5a.385.385 0 0 0-.375.375v.75c0 .21.164.375.375.375h7.5A.385.385 0 0 0 12 2.125v-.75A.403.403 0 0 0 11.625 1Zm0 3.75h-7.5a.385.385 0 0 0-.375.375v.75c0 .21.164.375.375.375h7.5A.385.385 0 0 0 12 5.875v-.75a.403.403 0 0 0-.375-.375Z" />
</svg>