<svg xmlns="http://www.w3.org/2000/svg" width="18" height="15" fill="none">
	<path fill="#fff"
		d="M9 11.688A3.895 3.895 0 0 1 5.09 8.05L2.219 5.836c-.383.492-.739.984-1.012 1.531a.873.873 0 0 0-.082.383c0 .164.027.3.082.41C2.684 11.06 5.637 13 9 13c.71 0 1.422-.11 2.105-.273l-1.394-1.094c-.246.055-.492.055-.711.055Zm8.559 1.613-3.008-2.352a9.17 9.17 0 0 0 2.215-2.789.873.873 0 0 0 .082-.383c0-.164-.028-.3-.082-.41C15.289 4.47 12.336 2.5 9 2.5c-1.477.027-2.844.383-4.047 1.04L1.48.86a.462.462 0 0 0-.273-.083C1.07.777.934.832.879.941l-.547.684a.462.462 0 0 0-.082.273.39.39 0 0 0 .164.329l16.078 12.441a.462.462 0 0 0 .274.082.44.44 0 0 0 .355-.164l.52-.684a.462.462 0 0 0 .082-.273.39.39 0 0 0-.164-.328Zm-5.004-3.883L11.46 8.57c.11-.246.137-.52.164-.82v-.027a2.614 2.614 0 0 0-2.598-2.598c-.246 0-.492.055-.738.11.164.218.246.492.274.765-.028.11-.028.191-.055.273l-2.024-1.53c.684-.575 1.559-.903 2.516-.93 2.16 0 3.938 1.777 3.938 3.937 0 .602-.165 1.148-.383 1.668Z" />
</svg>