<svg width="13" height="15" viewBox="0 0 13 15" fill="none" xmlns="http://www.w3.org/2000/svg">
<path d="M10 9.5C9.37109 9.5 8.79688 9.71875 8.35938 10.0742L5.54297 8.32422C5.59766 8.16016 5.59766 7.96875 5.59766 7.75C5.59766 7.55859 5.59766 7.36719 5.54297 7.20312L8.35938 5.45312C8.79688 5.80859 9.37109 6 10 6C11.4492 6 12.625 4.85156 12.625 3.375C12.625 1.92578 11.4492 0.75 10 0.75C8.52344 0.75 7.375 1.92578 7.375 3.375C7.375 3.59375 7.375 3.78516 7.42969 3.94922L4.61328 5.69922C4.17578 5.34375 3.60156 5.125 3 5.125C1.52344 5.125 0.375 6.30078 0.375 7.75C0.375 9.22656 1.52344 10.375 3 10.375C3.60156 10.375 4.17578 10.1836 4.61328 9.82812L7.42969 11.5781C7.375 11.7422 7.375 11.9336 7.375 12.1523V12.125C7.375 13.6016 8.52344 14.75 10 14.75C11.4492 14.75 12.625 13.6016 12.625 12.125C12.625 10.6758 11.4492 9.5 10 9.5Z" fill="white"/>
</svg>
