<svg width="18" height="19" viewBox="0 0 18 19" fill="none" xmlns="http://www.w3.org/2000/svg">
<path d="M15.875 0.75H2.125C1.07031 0.75 0.25 1.60938 0.25 2.625V16.375C0.25 17.4297 1.07031 18.25 2.125 18.25H15.875C16.8906 18.25 17.75 17.4297 17.75 16.375V2.625C17.75 1.60938 16.8906 0.75 15.875 0.75ZM15.6406 16.375H2.35938C2.20312 16.375 2.125 16.2969 2.125 16.1406V2.85938C2.125 2.74219 2.20312 2.625 2.35938 2.625H15.6406C15.7578 2.625 15.875 2.74219 15.875 2.85938V16.1406C15.875 16.2969 15.7578 16.375 15.6406 16.375Z" fill="white"/>
</svg>
