<svg width="32" height="32" viewBox="0 0 32 32" fill="none" xmlns="http://www.w3.org/2000/svg">
<g clip-path="url(#clip0_673_12653)">
<rect width="32" height="32" rx="8" fill="#050505"/>
<path d="M21.8982 9.875C21.8982 9.37772 22.1194 8.90081 22.5131 8.54917C22.9069 8.19754 23.4409 8 23.9978 8C24.5547 8 25.0887 8.19754 25.4825 8.54917C25.8763 8.90081 26.0975 9.37772 26.0975 9.875C26.0975 10.3723 25.8763 10.8492 25.4825 11.2008C25.0887 11.5525 24.5547 11.75 23.9978 11.75C23.4409 11.75 22.9069 11.5525 22.5131 11.2008C22.1194 10.8492 21.8982 10.3723 21.8982 9.875ZM23.6479 21.75V26.75C23.6479 27.4414 23.0223 28 22.2481 28C21.4739 28 20.8483 27.4414 20.8483 26.75V18.0352L19.5973 19.8945C19.1992 20.4844 18.3375 20.6758 17.677 20.3203C17.0165 19.9648 16.8021 19.1953 17.2002 18.6055L19.7504 14.8164C20.5115 13.6875 21.8763 12.9961 23.3504 12.9961H24.6496C26.1237 12.9961 27.4885 13.6875 28.2496 14.8164L30.7998 18.6055C31.1979 19.1953 30.9835 19.9648 30.323 20.3203C29.6625 20.6758 28.8008 20.4844 28.4027 19.8945L27.1473 18.0352V26.75C27.1473 27.4414 26.5218 28 25.7475 28C24.9733 28 24.3478 27.4414 24.3478 26.75V21.75H23.6479Z" fill="#909090"/>
<path d="M5.89816 9.875C5.89816 9.37772 6.11937 8.90081 6.51313 8.54917C6.90689 8.19754 7.44095 8 7.99781 8C8.55468 8 9.08873 8.19754 9.48249 8.54917C9.87626 8.90081 10.0975 9.37772 10.0975 9.875C10.0975 10.3723 9.87626 10.8492 9.48249 11.2008C9.08873 11.5525 8.55468 11.75 7.99781 11.75C7.44095 11.75 6.90689 11.5525 6.51313 11.2008C6.11937 10.8492 5.89816 10.3723 5.89816 9.875ZM7.64787 21.75V26.75C7.64787 27.4414 7.02235 28 6.2481 28C5.47385 28 4.84833 27.4414 4.84833 26.75V18.0352L3.59728 19.8945C3.19922 20.4844 2.33749 20.6758 1.67697 20.3203C1.01646 19.9648 0.802115 19.1953 1.20018 18.6055L3.75038 14.8164C4.51151 13.6875 5.87629 12.9961 7.35042 12.9961H8.64958C10.1237 12.9961 11.4885 13.6875 12.2496 14.8164L14.7998 18.6055C15.1979 19.1953 14.9835 19.9648 14.323 20.3203C13.6625 20.6758 12.8008 20.4844 12.4027 19.8945L11.1473 18.0352V26.75C11.1473 27.4414 10.5218 28 9.74753 28C8.97328 28 8.34776 27.4414 8.34776 26.75V21.75H7.64787Z" fill="#909090"/>
<path d="M13.5979 6.25C13.5979 5.65326 13.8507 5.08097 14.3007 4.65901C14.7507 4.23705 15.3611 4 15.9975 4C16.6339 4 17.2443 4.23705 17.6943 4.65901C18.1443 5.08097 18.3971 5.65326 18.3971 6.25C18.3971 6.84674 18.1443 7.41903 17.6943 7.84099C17.2443 8.26295 16.6339 8.5 15.9975 8.5C15.3611 8.5 14.7507 8.26295 14.3007 7.84099C13.8507 7.41903 13.5979 6.84674 13.5979 6.25ZM15.5976 20.5V26.5C15.5976 27.3297 14.8827 28 13.9978 28C13.113 28 12.3981 27.3297 12.3981 26.5V16.0422L10.9683 18.2734C10.5134 18.9812 9.52856 19.2109 8.77368 18.7844C8.01881 18.3578 7.77385 17.4344 8.22877 16.7266L11.1433 12.1797C12.0132 10.825 13.5729 9.99531 15.2576 9.99531H16.7424C18.4271 9.99531 19.9868 10.825 20.8567 12.1797L23.7712 16.7266C24.2262 17.4344 23.9812 18.3578 23.2263 18.7844C22.4714 19.2109 21.4866 18.9812 21.0317 18.2734L19.5969 16.0422V26.5C19.5969 27.3297 18.882 28 17.9972 28C17.1123 28 16.3974 27.3297 16.3974 26.5V20.5H15.5976Z" fill="white"/>
</g>
<defs>
<clipPath id="clip0_673_12653">
<rect width="32" height="32" rx="8" fill="white"/>
</clipPath>
</defs>
</svg>
