<svg width="32" height="32" viewBox="0 0 32 32" fill="none" xmlns="http://www.w3.org/2000/svg">
<g clip-path="url(#clip0_673_12646)">
<rect width="32" height="32" rx="8" fill="#050505"/>
<path d="M27 16C27 16.0387 27 16.0773 27 16.116C26.9828 17.6844 25.5562 18.75 23.9879 18.75H19.7812C18.6426 18.75 17.7188 19.6738 17.7188 20.8125C17.7188 20.9586 17.7359 21.1004 17.7617 21.2379C17.852 21.6762 18.041 22.0973 18.2258 22.5227C18.4879 23.1156 18.7457 23.7043 18.7457 24.3273C18.7457 25.6938 17.8176 26.9355 16.4512 26.9914C16.3008 26.9957 16.1504 27 15.9957 27C9.92422 27 5 22.0758 5 16C5 9.92422 9.92422 5 16 5C22.0758 5 27 9.92422 27 16ZM10.5 17.375C10.5 17.0103 10.3551 16.6606 10.0973 16.4027C9.83941 16.1449 9.48967 16 9.125 16C8.76033 16 8.41059 16.1449 8.15273 16.4027C7.89487 16.6606 7.75 17.0103 7.75 17.375C7.75 17.7397 7.89487 18.0894 8.15273 18.3473C8.41059 18.6051 8.76033 18.75 9.125 18.75C9.48967 18.75 9.83941 18.6051 10.0973 18.3473C10.3551 18.0894 10.5 17.7397 10.5 17.375ZM10.5 13.25C10.8647 13.25 11.2144 13.1051 11.4723 12.8473C11.7301 12.5894 11.875 12.2397 11.875 11.875C11.875 11.5103 11.7301 11.1606 11.4723 10.9027C11.2144 10.6449 10.8647 10.5 10.5 10.5C10.1353 10.5 9.78559 10.6449 9.52773 10.9027C9.26987 11.1606 9.125 11.5103 9.125 11.875C9.125 12.2397 9.26987 12.5894 9.52773 12.8473C9.78559 13.1051 10.1353 13.25 10.5 13.25ZM17.375 9.125C17.375 8.76033 17.2301 8.41059 16.9723 8.15273C16.7144 7.89487 16.3647 7.75 16 7.75C15.6353 7.75 15.2856 7.89487 15.0277 8.15273C14.7699 8.41059 14.625 8.76033 14.625 9.125C14.625 9.48967 14.7699 9.83941 15.0277 10.0973C15.2856 10.3551 15.6353 10.5 16 10.5C16.3647 10.5 16.7144 10.3551 16.9723 10.0973C17.2301 9.83941 17.375 9.48967 17.375 9.125ZM21.5 13.25C21.8647 13.25 22.2144 13.1051 22.4723 12.8473C22.7301 12.5894 22.875 12.2397 22.875 11.875C22.875 11.5103 22.7301 11.1606 22.4723 10.9027C22.2144 10.6449 21.8647 10.5 21.5 10.5C21.1353 10.5 20.7856 10.6449 20.5277 10.9027C20.2699 11.1606 20.125 11.5103 20.125 11.875C20.125 12.2397 20.2699 12.5894 20.5277 12.8473C20.7856 13.1051 21.1353 13.25 21.5 13.25Z" fill="white"/>
</g>
<defs>
<clipPath id="clip0_673_12646">
<rect width="32" height="32" rx="8" fill="white"/>
</clipPath>
</defs>
</svg>
