<svg width="32" height="32" viewBox="0 0 32 32" fill="none" xmlns="http://www.w3.org/2000/svg">
<g clip-path="url(#clip0_673_12688)">
<rect width="32" height="32" rx="8" fill="#050505"/>
<g clip-path="url(#clip1_673_12688)">
<mask id="mask0_673_12688" style="mask-type:alpha" maskUnits="userSpaceOnUse" x="3" y="3" width="26" height="26">
<path d="M26.5625 16C26.5625 13.1987 25.4497 10.512 23.4688 8.53118C21.488 6.55033 18.8013 5.4375 16 5.4375C13.1987 5.4375 10.512 6.55033 8.53118 8.53118C6.55033 10.512 5.4375 13.1987 5.4375 16C5.4375 18.8013 6.55033 21.488 8.53118 23.4688C10.512 25.4497 13.1987 26.5625 16 26.5625C18.8013 26.5625 21.488 25.4497 23.4688 23.4688C25.4497 21.488 26.5625 18.8013 26.5625 16ZM3 16C3 12.5522 4.36964 9.24558 6.80761 6.80761C9.24558 4.36964 12.5522 3 16 3C19.4478 3 22.7544 4.36964 25.1924 6.80761C27.6304 9.24558 29 12.5522 29 16C29 19.4478 27.6304 22.7544 25.1924 25.1924C22.7544 27.6304 19.4478 29 16 29C12.5522 29 9.24558 27.6304 6.80761 25.1924C4.36964 22.7544 3 19.4478 3 16ZM12.0188 19.1535C12.7906 19.9863 14.1109 20.875 16 20.875C17.8891 20.875 19.2094 19.9863 19.9812 19.1535C20.4383 18.6609 21.2102 18.6254 21.7027 19.0824C22.1953 19.5395 22.2309 20.3113 21.7738 20.8039C20.6566 22.0125 18.727 23.3125 16.0051 23.3125C13.2832 23.3125 11.3484 22.0176 10.2363 20.8039C9.7793 20.3113 9.80977 19.5395 10.3074 19.0824C10.8051 18.6254 11.5719 18.6559 12.0289 19.1535H12.0188ZM10.3328 13.5625C10.3328 13.1315 10.504 12.7182 10.8088 12.4135C11.1135 12.1087 11.5268 11.9375 11.9578 11.9375C12.3888 11.9375 12.8021 12.1087 13.1069 12.4135C13.4116 12.7182 13.5828 13.1315 13.5828 13.5625C13.5828 13.9935 13.4116 14.4068 13.1069 14.7115C12.8021 15.0163 12.3888 15.1875 11.9578 15.1875C11.5268 15.1875 11.1135 15.0163 10.8088 14.7115C10.504 14.4068 10.3328 13.9935 10.3328 13.5625ZM20.0828 11.9375C20.5138 11.9375 20.9271 12.1087 21.2319 12.4135C21.5366 12.7182 21.7078 13.1315 21.7078 13.5625C21.7078 13.9935 21.5366 14.4068 21.2319 14.7115C20.9271 15.0163 20.5138 15.1875 20.0828 15.1875C19.6518 15.1875 19.2385 15.0163 18.9338 14.7115C18.629 14.4068 18.4578 13.9935 18.4578 13.5625C18.4578 13.1315 18.629 12.7182 18.9338 12.4135C19.2385 12.1087 19.6518 11.9375 20.0828 11.9375Z" fill="black"/>
</mask>
<g mask="url(#mask0_673_12688)">
<rect x="3" y="3" width="13" height="26" fill="#909090"/>
</g>
<g clip-path="url(#clip2_673_12688)">
<mask id="mask1_673_12688" style="mask-type:alpha" maskUnits="userSpaceOnUse" x="3" y="3" width="26" height="26">
<path d="M16 29C19.4478 29 22.7544 27.6304 25.1924 25.1924C27.6304 22.7544 29 19.4478 29 16C29 12.5522 27.6304 9.24558 25.1924 6.80761C22.7544 4.36964 19.4478 3 16 3C12.5522 3 9.24558 4.36964 6.80761 6.80761C4.36964 9.24558 3 12.5522 3 16C3 19.4478 4.36964 22.7544 6.80761 25.1924C9.24558 27.6304 12.5522 29 16 29ZM11.3332 19.5293C12.2422 20.5805 13.7961 21.6875 16 21.6875C18.2039 21.6875 19.7578 20.5805 20.6668 19.5293C20.9613 19.1891 21.4742 19.1535 21.8145 19.448C22.1547 19.7426 22.1902 20.2555 21.8957 20.5957C20.7633 21.8957 18.798 23.3125 16 23.3125C13.202 23.3125 11.2367 21.8957 10.1043 20.5957C9.80977 20.2555 9.84531 19.7426 10.1855 19.448C10.5258 19.1535 11.0387 19.1891 11.3332 19.5293ZM10.3328 13.5625C10.3328 13.1315 10.504 12.7182 10.8088 12.4135C11.1135 12.1087 11.5268 11.9375 11.9578 11.9375C12.3888 11.9375 12.8021 12.1087 13.1069 12.4135C13.4116 12.7182 13.5828 13.1315 13.5828 13.5625C13.5828 13.9935 13.4116 14.4068 13.1069 14.7115C12.8021 15.0163 12.3888 15.1875 11.9578 15.1875C11.5268 15.1875 11.1135 15.0163 10.8088 14.7115C10.504 14.4068 10.3328 13.9935 10.3328 13.5625ZM20.0828 11.9375C20.5138 11.9375 20.9271 12.1087 21.2319 12.4135C21.5366 12.7182 21.7078 13.1315 21.7078 13.5625C21.7078 13.9935 21.5366 14.4068 21.2319 14.7115C20.9271 15.0163 20.5138 15.1875 20.0828 15.1875C19.6518 15.1875 19.2385 15.0163 18.9338 14.7115C18.629 14.4068 18.4578 13.9935 18.4578 13.5625C18.4578 13.1315 18.629 12.7182 18.9338 12.4135C19.2385 12.1087 19.6518 11.9375 20.0828 11.9375Z" fill="black"/>
</mask>
<g mask="url(#mask1_673_12688)">
<rect x="16" y="3" width="13" height="26" fill="white"/>
</g>
</g>
</g>
</g>
<defs>
<clipPath id="clip0_673_12688">
<rect width="32" height="32" rx="8" fill="white"/>
</clipPath>
<clipPath id="clip1_673_12688">
<rect width="26" height="26" fill="white" transform="translate(3 3)"/>
</clipPath>
<clipPath id="clip2_673_12688">
<rect width="26" height="26" fill="white" transform="translate(3 3)"/>
</clipPath>
</defs>
</svg>
