<svg width="32" height="32" viewBox="0 0 32 32" fill="none" xmlns="http://www.w3.org/2000/svg">
<g clip-path="url(#clip0_673_12709)">
<rect width="32" height="32" rx="8" fill="#050505"/>
<path d="M11.6045 6C11.9213 6 12.1854 6.22266 12.2829 6.51562C12.7826 8.02734 14.2572 9.125 16 9.125C17.7428 9.125 19.2174 8.02734 19.7171 6.51562C19.8146 6.22266 20.0787 6 20.3955 6H20.9074C21.8215 6 22.703 6.30859 23.4058 6.87109L28.5326 10.9766C28.8007 11.1914 28.9673 11.5039 28.9957 11.8398C29.0241 12.1758 28.9104 12.5078 28.6788 12.7617L26.4039 15.2617C25.9408 15.7734 25.1364 15.832 24.592 15.3984L22.4999 13.7227V23.5C22.4999 24.8789 21.334 26 19.8999 26H12.1001C10.666 26 9.50011 24.8789 9.50011 23.5V13.7227L7.40796 15.3984C6.86766 15.832 6.0633 15.7734 5.59612 15.2617L3.32116 12.7617C3.0896 12.5078 2.97585 12.1758 3.00429 11.8398C3.03273 11.5039 3.19929 11.1914 3.46741 10.9766L8.59419 6.87109C9.29699 6.30859 10.1785 6 11.0926 6H11.6045Z" fill="white"/>
<path d="M19.8999 25.5H16.5V9.59785C18.2341 9.40834 19.6719 8.24489 20.1917 6.67303C20.2319 6.55286 20.3258 6.5 20.3955 6.5H20.9074C21.7091 6.5 22.4802 6.77067 23.0934 7.26146L28.2199 11.3667C28.22 11.3668 28.22 11.3668 28.2201 11.3668C28.3822 11.4968 28.4807 11.684 28.4975 11.882C28.514 12.0768 28.4487 12.272 28.3094 12.4248L28.309 12.4252L26.0341 14.9252L26.0332 14.9262C25.7515 15.2375 25.2469 15.2803 24.9042 15.0078C24.904 15.0077 24.9038 15.0075 24.9036 15.0073L22.8125 13.3324L21.9999 12.6815V13.7227V23.5C21.9999 24.5845 21.0765 25.5 19.8999 25.5Z" fill="#909090" stroke="#909090"/>
</g>
<defs>
<clipPath id="clip0_673_12709">
<rect width="32" height="32" rx="8" fill="white"/>
</clipPath>
</defs>
</svg>
