<svg width="32" height="32" viewBox="0 0 32 32" fill="none" xmlns="http://www.w3.org/2000/svg">
<g clip-path="url(#clip0_673_12723)">
<rect width="32" height="32" rx="8" fill="#050505"/>
<circle cx="16" cy="16" r="12" fill="white"/>
<path d="M8 13.0089V11.3773H11.1735V20.5978H9.27729V13.0089H8Z" fill="#050505"/>
<path d="M14.6011 15.7156C13.7233 15.2771 13.2844 14.5984 13.2844 13.6792C13.2844 13.2239 13.4029 12.8107 13.6399 12.4397C13.8857 12.0603 14.25 11.7609 14.7328 11.5417C15.2244 11.314 15.8214 11.2002 16.5237 11.2002C17.226 11.2002 17.8185 11.314 18.3013 11.5417C18.7929 11.7609 19.1573 12.0603 19.3943 12.4397C19.6401 12.8107 19.763 13.2239 19.763 13.6792C19.763 14.143 19.6445 14.552 19.4074 14.9061C19.1704 15.2518 18.8544 15.5217 18.4594 15.7156C18.9422 15.918 19.3197 16.2131 19.5918 16.601C19.8639 16.9889 20 17.4484 20 17.9796C20 18.553 19.8464 19.0547 19.5391 19.4848C19.2406 19.9064 18.8281 20.231 18.3013 20.4587C17.7746 20.6864 17.1821 20.8002 16.5237 20.8002C15.8653 20.8002 15.2727 20.6864 14.746 20.4587C14.2281 20.231 13.8155 19.9064 13.5082 19.4848C13.2097 19.0547 13.0605 18.553 13.0605 17.9796C13.0605 17.4484 13.1966 16.9889 13.4687 16.601C13.7408 16.2047 14.1183 15.9096 14.6011 15.7156ZM17.9721 13.9322C17.9721 13.519 17.8405 13.1986 17.5771 12.9709C17.3225 12.7433 16.9714 12.6294 16.5237 12.6294C16.0847 12.6294 15.7336 12.7433 15.4702 12.9709C15.2157 13.1986 15.0884 13.5233 15.0884 13.9449C15.0884 14.3243 15.22 14.6279 15.4834 14.8555C15.7555 15.0832 16.1023 15.197 16.5237 15.197C16.945 15.197 17.2918 15.0832 17.5639 14.8555C17.8361 14.6194 17.9721 14.3117 17.9721 13.9322ZM16.5237 16.4872C16.0233 16.4872 15.6151 16.6094 15.299 16.854C14.9918 17.0985 14.8382 17.4484 14.8382 17.9038C14.8382 18.3254 14.9874 18.6711 15.2859 18.9409C15.5931 19.2023 16.0057 19.333 16.5237 19.333C17.0416 19.333 17.4498 19.1981 17.7483 18.9283C18.0468 18.6584 18.196 18.3169 18.196 17.9038C18.196 17.4568 18.0424 17.1111 17.7351 16.8666C17.4279 16.6136 17.024 16.4872 16.5237 16.4872Z" fill="#050505"/>
<path d="M26 16C26 16.3303 25.7322 16.598 25.402 16.598H24.1471V17.8529C24.1471 18.2103 23.8574 18.5 23.5 18.5C23.1426 18.5 22.8529 18.2103 22.8529 17.8529V16.598H21.598C21.2678 16.598 21 16.3303 21 16C21 15.6697 21.2678 15.402 21.598 15.402H22.8529V14.1471C22.8529 13.7897 23.1426 13.5 23.5 13.5C23.8574 13.5 24.1471 13.7897 24.1471 14.1471V15.402H25.402C25.7322 15.402 26 15.6697 26 16Z" fill="#050505"/>
</g>
<defs>
<clipPath id="clip0_673_12723">
<rect width="32" height="32" rx="8" fill="white"/>
</clipPath>
</defs>
</svg>
