<svg width="32" height="32" viewBox="0 0 32 32" fill="none" xmlns="http://www.w3.org/2000/svg">
<g clip-path="url(#clip0_673_12658)">
<rect width="32" height="32" rx="8" fill="#050505"/>
<path d="M16.5625 11.5616V12.5069" stroke="white" stroke-width="1.63" stroke-linecap="round" stroke-linejoin="round"/>
<path d="M17.5 22.5C18.0251 21.7648 18.4529 21.0055 19.7132 20.7534" stroke="#909090" stroke-width="0.630137" stroke-linecap="round" stroke-linejoin="round"/>
<path d="M13.4121 20.7534C14.4623 21.2785 16.5628 21.4877 16.5628 23C16.5628 24.5123 16.5628 24.3699 16.5628 25" stroke="#909090" stroke-width="0.630137" stroke-linecap="round" stroke-linejoin="round"/>
<path d="M22.2146 26.6849C23.3698 24.4795 25.2392 19.3123 23.4748 16.2877C21.2694 12.5068 19.3789 9.0411 23.1598 4" stroke="white" stroke-width="2" stroke-linecap="round" stroke-linejoin="round"/>
<path d="M9.98466 26.6849C8.82941 24.4795 6.96 19.3123 8.72438 16.2877C10.9299 12.5068 12.8203 9.0411 9.03945 4" stroke="white" stroke-width="2" stroke-linecap="round" stroke-linejoin="round"/>
<path d="M22 16C19.9048 16.7546 14.5714 17.8111 10 16" stroke="white" stroke-width="2" stroke-linecap="square" stroke-linejoin="round"/>
</g>
<defs>
<clipPath id="clip0_673_12658">
<rect width="32" height="32" rx="8" fill="white"/>
</clipPath>
</defs>
</svg>
