<svg width="32" height="32" viewBox="0 0 32 32" fill="none" xmlns="http://www.w3.org/2000/svg">
<g clip-path="url(#clip0_673_12703)">
<rect width="32" height="32" rx="8" fill="#050505"/>
<path d="M20.6154 6.24976C20.6154 5.65309 20.3844 5.08085 19.9733 4.65894C19.5621 4.23703 19.0045 4 18.4231 4C17.8416 4 17.284 4.23703 16.8729 4.65894C16.4617 5.08085 16.2308 5.65309 16.2308 6.24976C16.2308 6.84644 16.4617 7.41867 16.8729 7.84058C17.284 8.2625 17.8416 8.49952 18.4231 8.49952C19.0045 8.49952 19.5621 8.2625 19.9733 7.84058C20.3844 7.41867 20.6154 6.84644 20.6154 6.24976ZM11.7411 12.2257C12.1933 11.7617 12.8099 11.4992 13.4538 11.4992C13.5406 11.4992 13.6274 11.5039 13.7096 11.5133L12.2846 15.905C11.8599 17.2174 12.3623 18.661 13.5087 19.3968L17.4457 21.9231L16.2856 26.0852C16.0618 26.882 16.5139 27.7116 17.2904 27.9412C18.0668 28.1709 18.8752 27.7069 19.099 26.9101L20.4099 22.2043C20.6793 21.2388 20.2911 20.2077 19.4644 19.678L16.8702 18.0141L18.2815 14.1521L18.5144 14.7286C19.1995 16.4065 20.7935 17.4986 22.5656 17.4986H23.5385C24.3469 17.4986 25 16.8283 25 15.9987C25 15.1691 24.3469 14.4989 23.5385 14.4989H22.5656C21.9764 14.4989 21.4421 14.1333 21.2183 13.5756L20.9305 12.8725C20.2637 11.2274 18.9163 9.97124 17.2538 9.4463L15.0296 8.74325C14.5226 8.58389 13.9928 8.49952 13.4584 8.49952C12.0425 8.49952 10.6815 9.07603 9.68125 10.1072L8.62163 11.1899C8.05072 11.7757 8.05072 12.7272 8.62163 13.3131C9.19255 13.899 10.1197 13.899 10.6906 13.3131L11.7457 12.2304L11.7411 12.2257ZM10.1654 20.4983H7.46154C6.65312 20.4983 6 21.1685 6 21.9981C6 22.8277 6.65312 23.4979 7.46154 23.4979H10.6404C11.5082 23.4979 12.2937 22.973 12.6454 22.1621L13.1707 20.9482L12.7368 20.667C11.9375 20.1561 11.3438 19.4109 11.0058 18.5625L10.1654 20.4983Z" fill="white"/>
</g>
<defs>
<clipPath id="clip0_673_12703">
<rect width="32" height="32" rx="8" fill="white"/>
</clipPath>
</defs>
</svg>
