<svg width="32" height="32" viewBox="0 0 32 32" fill="none" xmlns="http://www.w3.org/2000/svg">
<g clip-path="url(#clip0_673_12714)">
<rect width="32" height="32" rx="8" fill="#050505"/>
<path d="M14.9104 16.4677C15.1595 15.5633 15.7406 15.3641 16 15.3775V13.0761C14.6769 13.1165 15.2217 13.0761 11.4469 12.3089C7.67218 11.5418 4.28656 12.4301 4.01416 12.5512C3.79623 12.6481 2.60026 12.8069 2.02952 12.8742C1.99061 13.3587 1.95947 14.4085 2.14627 14.7315C3.39155 15.4583 3.0024 16.4677 3.70287 18.3654C4.40334 20.2631 5.25947 22.08 9.34555 22.08C13.4316 22.08 14.5991 17.5982 14.9104 16.4677Z" fill="white"/>
<path d="M17.0896 16.4677C16.8405 15.5633 16.2594 15.3641 16 15.3776V13.0761C17.3231 13.1165 16.7783 13.0761 20.5531 12.309C24.3278 11.5418 27.7134 12.4301 27.9858 12.5513C28.2038 12.6482 29.3997 12.807 29.9705 12.8743C30.0094 13.3588 30.0405 14.4086 29.8537 14.7316C28.6085 15.4583 28.9976 16.4677 28.2971 18.3654C27.5967 20.2631 26.7405 22.0801 22.6544 22.0801C18.5684 22.0801 17.4009 17.5983 17.0896 16.4677Z" fill="white"/>
</g>
<defs>
<clipPath id="clip0_673_12714">
<rect width="32" height="32" rx="8" fill="white"/>
</clipPath>
</defs>
</svg>
