<svg width="32" height="32" viewBox="0 0 32 32" fill="none" xmlns="http://www.w3.org/2000/svg">
<g clip-path="url(#clip0_673_12706)">
<rect width="32" height="32" rx="8" fill="#050505"/>
<path d="M11.6045 7C11.9213 7 12.1854 7.22266 12.2829 7.51562C12.7826 9.02734 14.2572 10.125 16 10.125C17.7428 10.125 19.2174 9.02734 19.7171 7.51562C19.8146 7.22266 20.0787 7 20.3955 7H20.9074C21.8215 7 22.703 7.30859 23.4058 7.87109L28.5326 11.9766C28.8007 12.1914 28.9673 12.5039 28.9957 12.8398C29.0241 13.1758 28.9104 13.5078 28.6788 13.7617L26.4039 16.2617C25.9408 16.7734 25.1364 16.832 24.592 16.3984L22.4999 14.7227V24.5C22.4999 25.8789 21.334 27 19.8999 27H12.1001C10.666 27 9.50011 25.8789 9.50011 24.5V14.7227L7.40796 16.3984C6.86766 16.832 6.0633 16.7734 5.59612 16.2617L3.32116 13.7617C3.0896 13.5078 2.97585 13.1758 3.00429 12.8398C3.03273 12.5039 3.19929 12.1914 3.46741 11.9766L8.59419 7.87109C9.29699 7.30859 10.1785 7 11.0926 7H11.6045Z" fill="white"/>
</g>
<defs>
<clipPath id="clip0_673_12706">
<rect width="32" height="32" rx="8" fill="white"/>
</clipPath>
</defs>
</svg>
