<svg width="56" height="56" viewBox="0 0 56 56" fill="none" xmlns="http://www.w3.org/2000/svg">
<circle cx="27.5" cy="28" r="27" fill="#ED1C25"/>
<path d="M9.5 21.2699V17.5987H16.6403V38.345H12.3739V21.2699H9.5Z" fill="white"/>
<path d="M24.3526 27.36C22.3774 26.3734 21.3898 24.8461 21.3898 22.7782C21.3898 21.7536 21.6564 20.824 22.1897 19.9892C22.7428 19.1355 23.5625 18.4619 24.6489 17.9687C25.755 17.4564 27.0981 17.2003 28.6782 17.2003C30.2584 17.2003 31.5917 17.4564 32.678 17.9687C33.7841 18.4619 34.6038 19.1355 35.1371 19.9892C35.6902 20.824 35.9667 21.7536 35.9667 22.7782C35.9667 23.8216 35.7 24.7418 35.1667 25.5386C34.6334 26.3165 33.9224 26.9236 33.0335 27.36C34.1199 27.8153 34.9692 28.4793 35.5815 29.3521C36.1938 30.2248 36.5 31.2588 36.5 32.454C36.5 33.7442 36.1543 34.873 35.463 35.8406C34.7915 36.7892 33.8631 37.5197 32.678 38.0319C31.4929 38.5442 30.1596 38.8003 28.6782 38.8003C27.1969 38.8003 25.8636 38.5442 24.6785 38.0319C23.5131 37.5197 22.5848 36.7892 21.8935 35.8406C21.2219 34.873 20.8861 33.7442 20.8861 32.454C20.8861 31.2588 21.1923 30.2248 21.8046 29.3521C22.4169 28.4604 23.2662 27.7963 24.3526 27.36ZM31.9373 23.3473C31.9373 22.4177 31.641 21.6967 31.0485 21.1845C30.4757 20.6722 29.6856 20.4161 28.6782 20.4161C27.6907 20.4161 26.9006 20.6722 26.308 21.1845C25.7352 21.6967 25.4488 22.4272 25.4488 23.3758C25.4488 24.2295 25.7451 24.9125 26.3376 25.4248C26.95 25.937 27.7302 26.1932 28.6782 26.1932C29.6263 26.1932 30.4065 25.937 31.0188 25.4248C31.6312 24.8936 31.9373 24.2011 31.9373 23.3473ZM28.6782 29.0959C27.5524 29.0959 26.6339 29.371 25.9229 29.9212C25.2315 30.4714 24.8859 31.2588 24.8859 32.2833C24.8859 33.2319 25.2217 34.0098 25.8932 34.6169C26.5845 35.205 27.5129 35.4991 28.6782 35.4991C29.8436 35.4991 30.7621 35.1955 31.4336 34.5884C32.1052 33.9813 32.441 33.2129 32.441 32.2833C32.441 31.2778 32.0953 30.4999 31.404 29.9497C30.7127 29.3805 29.8041 29.0959 28.6782 29.0959Z" fill="white"/>
<path d="M47.75 26.875C47.75 27.6181 47.1476 28.2206 46.4044 28.2206H43.5809V31.0441C43.5809 31.8482 42.9291 32.5 42.125 32.5C41.3209 32.5 40.6691 31.8482 40.6691 31.0441V28.2206H37.8456C37.1024 28.2206 36.5 27.6181 36.5 26.875C36.5 26.1319 37.1024 25.5294 37.8456 25.5294H40.6691V22.7059C40.6691 21.9018 41.3209 21.25 42.125 21.25C42.9291 21.25 43.5809 21.9018 43.5809 22.7059V25.5294H46.4044C47.1476 25.5294 47.75 26.1319 47.75 26.875Z" fill="white"/>
</svg>
