<svg xmlns="http://www.w3.org/2000/svg" width="32" height="36" fill="none">
	<path fill="#fff"
		d="m10.797.387-1.586.796c0 2.502.062 6.864 1.086 10.231 4.555 1.11 6.851 1.11 11.406 0 1.04-3.36 1.086-6.76 1.094-10.231L21.203.387A40.56 40.56 0 0 1 19.5 2.463c-.563.638-1.156 1.278-1.727 1.782a6.047 6.047 0 0 1-.828.638c-.28.172-.554.32-.945.32-.39 0-.664-.148-.945-.32a6.047 6.047 0 0 1-.828-.638c-.57-.504-1.165-1.144-1.727-1.782A40.56 40.56 0 0 1 10.797.387Zm-.672 12.425L.477 32.117c.021.086.062.18.168.297.157.18.436.398.83.602.787.422 2.009.804 3.494 1.109 2.968.61 7.008.922 11.031.922 4.023 0 8.063-.313 11.031-.922 1.485-.305 2.711-.688 3.492-1.11.399-.203.672-.421.829-.6a.664.664 0 0 0 .171-.298l-9.648-19.304c-4.531 1.085-7.219 1.085-11.75 0Z" />
</svg>