<svg xmlns="http://www.w3.org/2000/svg" width="38" height="39" fill="none">
	<path fill="#fff"
		d="M16.445 2.717C27.656.597 37.432 9.074 37.5 19.807c-.068 2.46-2.05 4.443-4.443 4.443h-5.47c-3.485 0-5.741 3.623-4.169 6.768 1.299 2.529-.068 5.81-2.871 6.289C11.797 38.605.312 29.103 2.842 16.32 4.14 9.553 9.609 4.084 16.445 2.717ZM9.062 24.25c1.163 0 2.188-.957 2.188-2.188 0-1.162-1.025-2.187-2.188-2.187-1.23 0-2.187 1.025-2.187 2.188a2.16 2.16 0 0 0 2.188 2.187Zm2.188-8.75c1.162 0 2.188-.957 2.188-2.188 0-1.162-1.026-2.187-2.188-2.187-1.23 0-2.188 1.025-2.188 2.188A2.16 2.16 0 0 0 11.25 15.5ZM20 11.125c1.162 0 2.188-.957 2.188-2.188 0-1.162-1.026-2.187-2.188-2.187-1.23 0-2.188 1.025-2.188 2.188A2.16 2.16 0 0 0 20 11.124Zm8.75 4.375c1.162 0 2.188-.957 2.188-2.188 0-1.162-1.026-2.187-2.188-2.187-1.23 0-2.188 1.025-2.188 2.188A2.16 2.16 0 0 0 28.75 15.5Z" />
</svg>