<svg xmlns="http://www.w3.org/2000/svg" width="35" height="32" fill="none">
	<path fill="#fff"
		d="M28.333 6.667C25.193 2.48 21.2.167 17 .167S8.807 2.48 5.667 6.667C3.305 9.815.457 14.067.063 18.54c-.201 2.307.245 4.668 1.699 6.917 1.435 2.22 3.78 4.218 7.191 5.966 2.099 1.075 4.384-.366 4.682-2.471a10.797 10.797 0 0 1-1.937-1.669c-1.688-1.841-3.033-4.538-3.033-7.95 0-5.713 2.95-9.558 6.5-10.573.47-.133 1 .22 1.057.707a8.333 8.333 0 0 0 8.195 7.366c1.123.01.916 1.767.916 2.5 0 3.412-1.343 6.109-3.033 7.95a10.637 10.637 0 0 1-1.94 1.672c.267 2.113 2.53 3.567 4.63 2.552 3.608-1.74 6.072-3.739 7.563-5.975 1.512-2.27 1.939-4.662 1.679-6.99-.5-4.484-3.562-8.762-5.899-11.875Z" />
</svg>