<svg width="36" height="32" viewBox="0 0 36 32" fill="none" xmlns="http://www.w3.org/2000/svg">
<path d="M35.5 8.21875V27.9062C35.5 29.752 33.9961 31.1875 32.2188 31.1875H3.78125C1.93555 31.1875 0.5 29.752 0.5 27.9062V8.21875C0.5 6.44141 1.93555 4.9375 3.78125 4.9375H9.79688L10.6172 2.75C11.0957 1.45117 12.3262 0.5625 13.6934 0.5625H22.2383C23.6055 0.5625 24.8359 1.45117 25.3145 2.75L26.2031 4.9375H32.2188C33.9961 4.9375 35.5 6.44141 35.5 8.21875ZM26.2031 18.0625C26.2031 13.5508 22.5117 9.85938 18 9.85938C13.4199 9.85938 9.79688 13.5508 9.79688 18.0625C9.79688 22.6426 13.4199 26.2656 18 26.2656C22.5117 26.2656 26.2031 22.6426 26.2031 18.0625ZM24.0156 18.0625C24.0156 21.4121 21.2812 24.0781 18 24.0781C14.6504 24.0781 11.9844 21.4121 11.9844 18.0625C11.9844 14.7812 14.6504 12.0469 18 12.0469C21.2812 12.0469 24.0156 14.7812 24.0156 18.0625Z" fill="white"/>
</svg>
