<svg width="34" height="37" viewBox="0 0 34 37" fill="none" xmlns="http://www.w3.org/2000/svg">
<path d="M14.0001 28.6667C14.0001 30.4667 14.4167 32.15 15.1334 33.6667H4.00008C2.15008 33.6667 0.666748 32.1833 0.666748 30.3333V3.66666C0.666748 2.78261 1.01794 1.93476 1.64306 1.30964C2.26818 0.684518 3.11603 0.333328 4.00008 0.333328H5.66675V12L9.83341 9.49999L14.0001 12V0.333328H24.0001C24.8841 0.333328 25.732 0.684518 26.3571 1.30964C26.9822 1.93476 27.3334 2.78261 27.3334 3.66666V17.1333C26.7834 17.05 26.2334 17 25.6667 17C19.2167 17 14.0001 22.2167 14.0001 28.6667ZM33.6667 31C33.8334 31 33.8334 31.1667 33.6667 31.3333L32.0001 34.1667C31.8334 34.3333 31.6667 34.3333 31.5001 34.3333L29.5001 33.6667C29.0001 34 28.6667 34.1667 28.1667 34.5L27.8334 36.6667C27.8334 36.8333 27.6667 37 27.5001 37H24.1667C24.0001 37 23.8334 36.8333 23.6667 36.6667L23.3334 34.5C22.8334 34.3333 22.3334 34 22.0001 33.6667L20.0001 34.5C19.8334 34.5 19.6667 34.5 19.5001 34.3333L17.8334 31.5C17.6667 31.3333 17.8334 31.1667 18.0001 31L19.8334 29.6667V28L18.0001 26.6667C17.8334 26.5 17.8334 26.3333 17.8334 26.1667L19.5001 23.3333C19.6667 23.1667 19.8334 23.1667 20.0001 23.1667L22.0001 24C22.5001 23.6667 22.8334 23.5 23.3334 23.1667L23.6667 21C23.6667 20.8333 23.8334 20.6667 24.1667 20.6667H27.5001C27.6667 20.6667 27.8334 20.8333 27.8334 21L28.1667 23.1667C28.6667 23.3333 29.1667 23.6667 29.6667 24L31.6667 23.1667C31.8334 23.1667 32.1667 23.1667 32.1667 23.3333L33.8334 26.1667C34.0001 26.3333 33.8334 26.5 33.6667 26.6667L31.8334 28V29.6667L33.6667 31ZM28.1667 28.6667C28.1667 27.3333 27.0001 26.1667 25.6667 26.1667C24.3334 26.1667 23.1667 27.3333 23.1667 28.6667C23.1667 30 24.3334 31.1667 25.6667 31.1667C27.0001 31.1667 28.1667 30 28.1667 28.6667Z" fill="white"/>
</svg>
