<svg width="20" height="16" viewBox="0 0 20 16" fill="none" xmlns="http://www.w3.org/2000/svg">
<path d="M19.5 6.5H17.5V4.5C17.5 4.25 17.25 4 17 4H16C15.7188 4 15.5 4.25 15.5 4.5V6.5H13.5C13.2188 6.5 13 6.75 13 7V8C13 8.28125 13.2188 8.5 13.5 8.5H15.5V10.5C15.5 10.7812 15.7188 11 16 11H17C17.25 11 17.5 10.7812 17.5 10.5V8.5H19.5C19.75 8.5 20 8.28125 20 8V7C20 6.75 19.75 6.5 19.5 6.5ZM7 8C9.1875 8 11 6.21875 11 4C11 1.8125 9.1875 0 7 0C4.78125 0 3 1.8125 3 4C3 6.21875 4.78125 8 7 8ZM9.78125 9H9.25C8.5625 9.34375 7.8125 9.5 7 9.5C6.1875 9.5 5.40625 9.34375 4.71875 9H4.1875C1.875 9 0 10.9062 0 13.2188V14.5C0 15.3438 0.65625 16 1.5 16H12.5C13.3125 16 14 15.3438 14 14.5V13.2188C14 10.9062 12.0938 9 9.78125 9Z" fill="white"/>
</svg>
