<svg width="21" height="15" viewBox="0 0 21 15" fill="none" xmlns="http://www.w3.org/2000/svg">
<path d="M18.625 15C19.6406 15 20.5 14.1797 20.5 13.125V1.875C20.5 0.859375 19.6406 0 18.625 0H2.375C1.32031 0 0.5 0.859375 0.5 1.875V13.125C0.5 14.1797 1.32031 15 2.375 15H18.625ZM4.875 2.1875C6.04688 2.1875 7.0625 3.20312 7.0625 4.375C7.0625 5.58594 6.04688 6.5625 4.875 6.5625C3.66406 6.5625 2.6875 5.58594 2.6875 4.375C2.6875 3.20312 3.66406 2.1875 4.875 2.1875ZM3 12.5V10.625L5.77344 7.85156C5.96875 7.65625 6.24219 7.65625 6.4375 7.85156L8.625 10L13.8984 4.72656C14.0938 4.53125 14.3672 4.53125 14.5625 4.72656L18 8.125V12.5H3Z" fill="white"/>
</svg>
