<svg width="20" height="21" viewBox="0 0 20 21" fill="none" xmlns="http://www.w3.org/2000/svg">
<path d="M10 0.8125C4.64844 0.8125 0.273438 5.1875 0.3125 10.5391C0.3125 15.8516 4.64844 20.1875 10 20.1875C12.4609 20.1875 14.7656 19.25 16.4844 17.7266C16.6797 17.5312 16.6797 17.2188 16.4844 17.0234L14.9219 15.4609C14.7656 15.3047 14.4922 15.3047 14.2969 15.4609C13.0859 16.5156 11.6016 17.0625 10 17.0625C6.32812 17.0625 3.4375 14.1328 3.4375 10.5781C3.39844 6.82812 6.44531 3.9375 10.0391 3.97656C11.6797 3.97656 13.2422 4.60156 14.4531 5.73438L12.8125 7.375C12.2266 7.96094 12.6562 8.9375 13.4766 8.9375H18.75C19.2578 8.9375 19.6875 8.54688 19.6875 8V2.76562C19.6875 1.94531 18.6719 1.51562 18.0859 2.10156L16.6797 3.50781C14.9219 1.86719 12.5781 0.851562 10 0.8125Z" fill="white"/>
</svg>
