<svg width="32" height="32" viewBox="0 0 32 32" fill="none" xmlns="http://www.w3.org/2000/svg">
<g clip-path="url(#clip0_673_12671)">
<rect width="32" height="32" rx="8" fill="#050505"/>
<path d="M26.6339 25.5242H5.12034C3.4517 24.4118 3.66056 24.0725 4.54081 22.6423L4.56009 22.6109C7.36133 18.9133 6.91313 18.6892 7.13723 14.2072C7.36133 9.72522 11.6192 6.47577 15.7651 6.47577C19.9109 6.47577 24.617 9.83727 24.729 14.2072C24.8411 18.5771 25.4013 20.594 27.3062 22.6109C28.8301 24.2244 27.4929 25.2254 26.6339 25.5242Z" fill="white"/>
<path d="M10.1445 17.9049L10.1627 14.3193C18.4544 14.3193 16.7736 10.1735 17.67 11.6301C18.5664 13.0868 20.5736 12.7641 21.0315 13.0868C21.8197 13.6422 21.8159 14.8265 21.8107 15.7907C21.8053 16.7865 21.7977 17.7886 21.7977 17.9049C21.7977 18.129 20.9195 22.0508 15.9893 22.1628C12.0451 22.2524 10.4433 19.3616 10.1445 17.9049Z" fill="#050505"/>
<mask id="mask0_673_12671" style="mask-type:alpha" maskUnits="userSpaceOnUse" x="3" y="6" width="25" height="20">
<path d="M26.6339 25.5242H5.12034C3.4517 24.4118 3.66056 24.0725 4.54081 22.6423L4.56009 22.6109C7.36133 18.9133 6.91313 18.6892 7.13723 14.2072C7.36133 9.72521 11.6192 6.47577 15.7651 6.47577C19.9109 6.47577 24.617 9.83726 24.729 14.2072C24.8411 18.5771 25.4013 20.594 27.3062 22.6109C28.8301 24.2244 27.4929 25.2254 26.6339 25.5242Z" fill="#050505"/>
</mask>
<g mask="url(#mask0_673_12671)">
<rect x="3" y="6" width="14" height="20" fill="#909090"/>
</g>
<path d="M10.1445 17.9049L10.1627 14.3193C18.4544 14.3193 16.7736 10.1735 17.67 11.6301C18.5664 13.0868 20.5736 12.764 21.0315 13.0868C21.8197 13.6422 21.8159 14.8265 21.8107 15.7907C21.8053 16.7865 21.7977 17.7886 21.7977 17.9049C21.7977 18.129 20.9195 22.0508 15.9893 22.1628C12.0451 22.2524 10.4433 19.3615 10.1445 17.9049Z" fill="#050505"/>
</g>
<defs>
<clipPath id="clip0_673_12671">
<rect width="32" height="32" rx="8" fill="white"/>
</clipPath>
</defs>
</svg>
