<svg width="32" height="32" viewBox="0 0 32 32" fill="none" xmlns="http://www.w3.org/2000/svg">
<g clip-path="url(#clip0_673_12719)">
<rect width="32" height="32" rx="8" fill="#050505"/>
<g clip-path="url(#clip1_673_12719)">
<path d="M20.3983 7.74193C20.6288 7.20677 20.4569 6.58177 19.9843 6.23802C19.5116 5.89427 18.8671 5.92552 18.4257 6.30834L8.42568 15.0583C8.03506 15.4021 7.89834 15.9529 8.07803 16.4411C8.25772 16.9294 8.73037 17.2497 9.2499 17.2497H13.6054L10.6015 24.2576C10.371 24.7927 10.5429 25.4177 11.0155 25.7615C11.4882 26.1052 12.1327 26.074 12.5741 25.6911L22.5741 16.9411C22.9647 16.5974 23.1054 16.0466 22.9218 15.5622C22.7382 15.0779 22.2733 14.7536 21.7499 14.7536H17.3944L20.3983 7.74193Z" fill="white"/>
</g>
</g>
<defs>
<clipPath id="clip0_673_12719">
<rect width="32" height="32" rx="8" fill="white"/>
</clipPath>
<clipPath id="clip1_673_12719">
<rect width="15" height="20" fill="white" transform="translate(8 6)"/>
</clipPath>
</defs>
</svg>
