<svg width="32" height="32" viewBox="0 0 32 32" fill="none" xmlns="http://www.w3.org/2000/svg">
<g clip-path="url(#clip0_673_12700)">
<rect width="32" height="32" rx="8" fill="#050505"/>
<path d="M16.0191 11.9167C15.5983 11.9531 15.1774 11.9896 14.7948 12.099C14.9861 12.3906 15.0626 12.7552 15.1009 13.0833C15.1009 14.2135 14.1061 15.125 12.9583 15.125C12.5757 15.125 12.193 15.0521 11.9252 14.8698C11.8104 15.2344 11.7339 15.599 11.7339 16C11.7339 18.2604 13.647 20.0833 16.0191 20.0833C18.3913 20.0833 20.3043 18.2604 20.3043 16C20.3043 13.776 18.3913 11.9531 16.0191 11.9531V11.9167ZM26.8852 15.4896C24.8191 11.625 20.687 9 16.0191 9C11.313 9 7.18087 11.625 5.11478 15.4896C5.03826 15.6354 5 15.8177 5 16C5 16.2188 5.03826 16.401 5.11478 16.5469C7.18087 20.4115 11.313 23 16.0191 23C20.687 23 24.8191 20.4115 26.8852 16.5469C26.9617 16.401 27 16.2188 27 16.0365C27 15.8177 26.9617 15.6354 26.8852 15.4896ZM16.0191 21.25C12.2313 21.25 8.74957 19.2448 6.91304 16C8.74957 12.7552 12.2313 10.75 16.0191 10.75C19.7687 10.75 23.2504 12.7552 25.087 16C23.2504 19.2448 19.7687 21.25 16.0191 21.25Z" fill="white"/>
</g>
<defs>
<clipPath id="clip0_673_12700">
<rect width="32" height="32" rx="8" fill="white"/>
</clipPath>
</defs>
</svg>
