<svg width="32" height="32" viewBox="0 0 32 32" fill="none" xmlns="http://www.w3.org/2000/svg">
<g clip-path="url(#clip0_673_12696)">
<rect width="32" height="32" rx="8" fill="#050505"/>
<g clip-path="url(#clip1_673_12696)">
<path d="M17.1109 27.425C19.5156 24.541 25 17.5512 25 13.625C25 8.86328 20.9688 5 16 5C11.0312 5 7 8.86328 7 13.625C7 17.5512 12.4844 24.541 14.8891 27.425C15.4656 28.1123 16.5344 28.1123 17.1109 27.425ZM16 10.75C16.7956 10.75 17.5587 11.0529 18.1213 11.5921C18.6839 12.1312 19 12.8625 19 13.625C19 14.3875 18.6839 15.1188 18.1213 15.6579C17.5587 16.1971 16.7956 16.5 16 16.5C15.2044 16.5 14.4413 16.1971 13.8787 15.6579C13.3161 15.1188 13 14.3875 13 13.625C13 12.8625 13.3161 12.1312 13.8787 11.5921C14.4413 11.0529 15.2044 10.75 16 10.75Z" fill="white"/>
</g>
</g>
<defs>
<clipPath id="clip0_673_12696">
<rect width="32" height="32" rx="8" fill="white"/>
</clipPath>
<clipPath id="clip1_673_12696">
<rect width="18" height="23" fill="white" transform="translate(7 5)"/>
</clipPath>
</defs>
</svg>
