<svg width="32" height="32" viewBox="0 0 32 32" fill="none" xmlns="http://www.w3.org/2000/svg">
<g clip-path="url(#clip0_673_12650)">
<rect width="32" height="32" rx="8" fill="#050505"/>
<path d="M13.5979 6.25C13.5979 5.65326 13.8507 5.08097 14.3007 4.65901C14.7507 4.23705 15.3611 4 15.9975 4C16.6339 4 17.2443 4.23705 17.6943 4.65901C18.1443 5.08097 18.3971 5.65326 18.3971 6.25C18.3971 6.84674 18.1443 7.41903 17.6943 7.84099C17.2443 8.26295 16.6339 8.5 15.9975 8.5C15.3611 8.5 14.7507 8.26295 14.3007 7.84099C13.8507 7.41903 13.5979 6.84674 13.5979 6.25ZM15.5976 20.5V26.5C15.5976 27.3297 14.8827 28 13.9978 28C13.113 28 12.3981 27.3297 12.3981 26.5V16.0422L10.9683 18.2734C10.5134 18.9812 9.52856 19.2109 8.77368 18.7844C8.01881 18.3578 7.77385 17.4344 8.22877 16.7266L11.1433 12.1797C12.0132 10.825 13.5729 9.99531 15.2576 9.99531H16.7424C18.4271 9.99531 19.9868 10.825 20.8567 12.1797L23.7712 16.7266C24.2262 17.4344 23.9812 18.3578 23.2263 18.7844C22.4714 19.2109 21.4866 18.9812 21.0317 18.2734L19.5969 16.0422V26.5C19.5969 27.3297 18.882 28 17.9972 28C17.1123 28 16.3974 27.3297 16.3974 26.5V20.5H15.5976Z" fill="white"/>
</g>
<defs>
<clipPath id="clip0_673_12650">
<rect width="32" height="32" fill="white"/>
</clipPath>
</defs>
</svg>
