<svg width="32" height="32" viewBox="0 0 32 32" fill="none" xmlns="http://www.w3.org/2000/svg">
<g clip-path="url(#clip0_673_12667)">
<rect width="32" height="32" rx="8" fill="#050505"/>
<g clip-path="url(#clip1_673_12667)">
<path d="M25.75 16C25.75 13.4141 24.7228 10.9342 22.8943 9.10571C21.0658 7.27723 18.5859 6.25 16 6.25C13.4141 6.25 10.9342 7.27723 9.10571 9.10571C7.27723 10.9342 6.25 13.4141 6.25 16C6.25 18.5859 7.27723 21.0658 9.10571 22.8943C10.9342 24.7228 13.4141 25.75 16 25.75C18.5859 25.75 21.0658 24.7228 22.8943 22.8943C24.7228 21.0658 25.75 18.5859 25.75 16ZM4 16C4 12.8174 5.26428 9.76516 7.51472 7.51472C9.76516 5.26428 12.8174 4 16 4C19.1826 4 22.2348 5.26428 24.4853 7.51472C26.7357 9.76516 28 12.8174 28 16C28 19.1826 26.7357 22.2348 24.4853 24.4853C22.2348 26.7357 19.1826 28 16 28C12.8174 28 9.76516 26.7357 7.51472 24.4853C5.26428 22.2348 4 19.1826 4 16ZM12.325 18.9109C13.0375 19.6797 14.2563 20.5 16 20.5C17.7437 20.5 18.9625 19.6797 19.675 18.9109C20.0969 18.4563 20.8094 18.4234 21.2641 18.8453C21.7187 19.2672 21.7516 19.9797 21.3297 20.4344C20.2984 21.55 18.5172 22.75 16.0047 22.75C13.4922 22.75 11.7063 21.5547 10.6797 20.4344C10.2578 19.9797 10.2859 19.2672 10.7453 18.8453C11.2047 18.4234 11.9125 18.4516 12.3344 18.9109H12.325ZM10.7687 13.75C10.7687 13.3522 10.9268 12.9706 11.2081 12.6893C11.4894 12.408 11.8709 12.25 12.2687 12.25C12.6666 12.25 13.0481 12.408 13.3294 12.6893C13.6107 12.9706 13.7687 13.3522 13.7687 13.75C13.7687 14.1478 13.6107 14.5294 13.3294 14.8107C13.0481 15.092 12.6666 15.25 12.2687 15.25C11.8709 15.25 11.4894 15.092 11.2081 14.8107C10.9268 14.5294 10.7687 14.1478 10.7687 13.75ZM19.7687 12.25C20.1666 12.25 20.5481 12.408 20.8294 12.6893C21.1107 12.9706 21.2687 13.3522 21.2687 13.75C21.2687 14.1478 21.1107 14.5294 20.8294 14.8107C20.5481 15.092 20.1666 15.25 19.7687 15.25C19.3709 15.25 18.9894 15.092 18.7081 14.8107C18.4268 14.5294 18.2687 14.1478 18.2687 13.75C18.2687 13.3522 18.4268 12.9706 18.7081 12.6893C18.9894 12.408 19.3709 12.25 19.7687 12.25Z" fill="white"/>
</g>
</g>
<defs>
<clipPath id="clip0_673_12667">
<rect width="32" height="32" rx="8" fill="white"/>
</clipPath>
<clipPath id="clip1_673_12667">
<rect width="24" height="24" fill="white" transform="translate(4 4)"/>
</clipPath>
</defs>
</svg>
